<mxfile host="app.diagrams.net" modified="2024-06-21T08:07:30.347Z" agent="Mozilla/5.0 (Windows NT 10.0; Win64; x64) AppleWebKit/537.36 (KHTML, like Gecko) Chrome/126.0.0.0 Safari/537.36" version="24.6.0" etag="li6ynPsuR-0rmemYP6Fv" type="github">
  <diagram name="Halaman-1" id="VEh9kdMr_yx0KGHaAsj-">
    <mxGraphModel>
      <root>
        <mxCell id="0" />
        <mxCell id="1" parent="0" />
      </root>
    </mxGraphModel>
  </diagram>
</mxfile>
